<svg width="20" height="20" viewBox="0 0 20 20" fill="none" xmlns="http://www.w3.org/2000/svg">
<g clip-path="url(#clip0_1164_5873)">
<path d="M8.28126 0.515612C6.78126 0.781237 5.20314 1.46874 4.13283 2.31249C3.62501 2.71874 2.58595 3.77342 2.21877 4.26561C1.60158 5.09374 1.44533 5.42967 1.5547 5.67186C1.62502 5.82811 1.68752 5.86717 1.85939 5.84374C2.02345 5.82811 2.14064 5.70311 2.39845 5.31249C2.57814 5.03124 2.8047 4.6953 2.90627 4.5703C3.16408 4.22655 4.28908 3.11717 4.59376 2.90624C6.14845 1.81249 7.25001 1.37499 8.9297 1.16405C9.28126 1.12499 9.63283 1.0703 9.70314 1.04686C9.88283 0.992174 9.95314 0.749987 9.84376 0.546862C9.77345 0.414049 9.68751 0.390612 9.31251 0.398424C9.07033 0.406237 8.60158 0.453112 8.28126 0.515612Z" fill="#003384"/>
<path d="M10.7657 0.500001C10.6094 0.617188 10.5782 0.976563 10.711 1.0625C10.7579 1.09375 11.086 1.16406 11.4376 1.22656C12.7344 1.44531 13.961 1.92969 14.9532 2.60156C15.586 3.03125 15.6563 3.08594 16.3204 3.75781C17.1485 4.59375 17.4063 4.9375 17.9766 5.97656C18.2032 6.39844 18.7501 6.42188 18.7501 6.00781C18.7501 5.83594 18.3829 5.14844 17.9454 4.5C17.5547 3.91406 16.3985 2.75 15.6641 2.20313C14.6094 1.41406 12.8751 0.695313 11.4844 0.476563C10.8751 0.375001 10.9297 0.375001 10.7657 0.500001Z" fill="#003384"/>
<path d="M8.46093 1.83595C7.67187 1.97657 7.17968 2.14845 6.31249 2.58595C5.42968 3.02345 4.87499 3.39845 4.34374 3.90626C4.02343 4.21095 3.96874 4.3047 4.00781 4.47657C4.03906 4.59376 4.13281 4.68751 4.25781 4.71876C4.41406 4.75782 4.54687 4.69532 4.94531 4.35939C5.59374 3.8047 5.78906 3.67189 6.49218 3.29689C8.02343 2.48439 9.77343 2.2422 11.5312 2.59376C12 2.69532 12.4531 2.76564 12.5234 2.75001C12.6719 2.71876 12.7656 2.47657 12.6953 2.27345C12.5547 1.82814 9.96093 1.56251 8.46093 1.83595Z" fill="#003384"/>
<path d="M13.3359 2.63281C13.3047 2.65625 13.2812 2.78125 13.2812 2.89844C13.2812 3.05469 13.3438 3.16406 13.5 3.25781C15.3438 4.39844 16.2891 5.41406 16.9844 7.00781C17.3281 7.78906 17.4609 8.29688 17.5781 9.27344C17.6797 10.0938 17.7344 10.2344 18 10.2344C18.3906 10.2344 18.4531 9.83594 18.2422 8.625C17.9219 6.82031 17.0391 5.21094 15.6562 3.91406C14.7109 3.03125 13.5625 2.39844 13.3359 2.63281Z" fill="#003384"/>
<path d="M8.92975 4.45311C7.94538 4.64842 6.95319 5.17186 6.25006 5.85936C5.57038 6.51561 5.35944 6.82811 5.42194 7.0703C5.49225 7.35936 5.84381 7.42186 6.03131 7.17967C7.03131 5.92186 8.24225 5.24217 9.69538 5.10936C10.7813 5.0078 12.1407 5.39842 13.0235 6.06248C13.4141 6.35936 13.7501 6.27342 13.7501 5.89061C13.7501 5.52342 12.5391 4.81248 11.4454 4.53123C10.7969 4.36717 9.57038 4.32811 8.92975 4.45311Z" fill="#003384"/>
<path d="M3.0625 5.40624C2.16406 6.64061 1.64062 8.39061 1.64062 10.1641C1.64062 11.1719 1.45312 12.6016 1.24219 13.1953C1.16406 13.4375 1.09375 13.6875 1.09375 13.7656C1.09375 13.9375 1.36719 14.0859 1.57031 14.0234C1.92969 13.9062 2.25 12.5781 2.30469 11.0156C2.35938 9.51561 2.47656 8.60936 2.71094 7.86718C2.92188 7.1953 3.28906 6.3828 3.61719 5.8828C3.89062 5.45311 3.89844 5.17968 3.625 5.07811C3.51562 5.03124 3.41406 4.99999 3.39844 4.99999C3.375 4.99999 3.22656 5.18749 3.0625 5.40624Z" fill="#003384"/>
<path d="M8.59385 3.17189C5.71885 3.78126 3.6251 6.03907 3.08604 9.09376C2.97666 9.6797 3.03135 9.87501 3.28916 9.94532C3.49229 10 3.7501 9.78907 3.7501 9.57032C3.7501 8.82032 4.39072 7.14063 4.99229 6.32813C5.5626 5.5547 6.6251 4.6797 7.44541 4.3047C7.97666 4.06251 8.92979 3.82814 9.57041 3.78126C9.8751 3.75782 10.1954 3.72657 10.2892 3.70314C10.5001 3.66407 10.586 3.41407 10.4532 3.21095C10.3673 3.06251 10.2813 3.04689 9.72666 3.0547C9.38291 3.0547 8.8751 3.10939 8.59385 3.17189Z" fill="#003384"/>
<path d="M11.4923 3.33594C11.3986 3.39844 11.3282 3.53125 11.3282 3.625C11.3282 3.8125 11.5548 3.96094 12.0314 4.10156C12.7657 4.32031 14.0157 5.14062 14.5704 5.78125C14.7423 5.97656 14.9298 6.17969 14.9767 6.23438C15.2267 6.5 15.7501 7.49219 15.9376 8.07031C16.1954 8.82031 16.3361 9.91406 16.3048 10.8672C16.297 11.3438 16.3204 11.5781 16.3986 11.6641C16.5314 11.8359 16.7501 11.8359 16.922 11.6641C17.1173 11.4609 17.0392 9.19531 16.8048 8.32812C16.1329 5.89062 14.3673 4.04688 11.9767 3.32031C11.7032 3.23438 11.6251 3.24219 11.4923 3.33594Z" fill="#003384"/>
<path d="M8.90629 5.85157C7.6641 6.18751 6.74223 6.97657 6.10942 8.2422C5.79692 8.85939 5.64848 9.70314 5.58598 11.1094C5.53129 12.2266 5.5391 12.2578 5.70317 12.3438C5.83598 12.4141 5.90629 12.4063 6.05473 12.3125C6.25004 12.1875 6.25785 12.1328 6.36723 10.2891C6.39848 9.87501 6.4766 9.34376 6.55473 9.1172C6.70317 8.68751 6.99223 8.08595 7.11723 7.93751C7.94535 6.96876 8.67192 6.56251 9.76567 6.43751C10.0469 6.41407 10.3204 6.35157 10.375 6.3047C10.5235 6.18751 10.4844 5.87501 10.3204 5.78126C10.0938 5.66407 9.48442 5.69532 8.90629 5.85157Z" fill="#003384"/>
<path d="M11.1173 6.02345C11.0079 6.13282 10.9845 6.39845 11.0782 6.53126C11.1095 6.58595 11.2657 6.6797 11.4298 6.75001C12.1095 7.03126 12.8829 7.79689 13.2813 8.59376C13.5704 9.16407 13.6641 9.89845 13.6251 11.2891C13.6095 11.9766 13.5782 12.6328 13.5548 12.7344C13.5313 12.8438 13.5079 13.1016 13.5001 13.3125C13.4845 13.6016 13.5157 13.7109 13.6329 13.7969C13.8204 13.9375 13.8516 13.9375 14.0548 13.7656C14.1954 13.6484 14.2266 13.4922 14.3048 12.5391C14.4141 11.1563 14.3595 9.47657 14.1798 8.94532C13.9141 8.14064 13.5548 7.53907 13.047 7.03126C12.3048 6.28126 11.3516 5.78126 11.1173 6.02345Z" fill="#003384"/>
<path d="M0.953164 6.57811C0.867227 6.68749 0.664102 7.35936 0.500039 8.08592C0.437539 8.34374 0.367227 9.11717 0.343789 9.80467C0.296914 11.1406 0.351602 11.4219 0.664102 11.4687C1.00785 11.5078 1.0391 11.414 1.05473 10.1094C1.07035 9.14061 1.10941 8.70311 1.25004 8.12499C1.34379 7.71874 1.46098 7.3203 1.50004 7.24218C1.60941 7.02343 1.6016 6.6328 1.4766 6.55468C1.32035 6.45311 1.04691 6.46874 0.953164 6.57811Z" fill="#003384"/>
<path d="M14.086 6.60157C13.8751 6.75 13.8907 6.84375 14.2813 7.57813C14.7735 8.53125 14.9454 9.28907 14.961 10.6641C14.9766 11.8203 14.8438 13.8594 14.6876 14.6797C14.5938 15.1797 14.5938 15.3984 14.672 15.5156C14.7657 15.6641 15.0313 15.7031 15.1798 15.5938C15.5079 15.3438 15.836 10.9219 15.6329 9.44532C15.4923 8.38282 15.0001 7.10157 14.5704 6.67188C14.3516 6.45313 14.3048 6.44532 14.086 6.60157Z" fill="#003384"/>
<path d="M18.6876 7.04688C18.5547 7.17969 18.5704 7.39062 18.7422 8.14062C18.9454 9.01562 19.0157 10.125 18.9141 10.9688C18.8204 11.7812 18.8751 11.9531 19.2266 11.9531C19.5782 11.9531 19.6329 11.7188 19.6407 10.1953C19.6485 8.86719 19.5626 8.13281 19.3282 7.42188C19.1719 6.96094 18.9219 6.8125 18.6876 7.04688Z" fill="#003384"/>
<path d="M9.17977 7.14063C8.62508 7.3125 8.25008 7.55469 7.83602 7.99219C7.47664 8.36719 7.43758 8.44531 7.49227 8.64063C7.53914 8.82031 7.60164 8.875 7.78133 8.89063C7.96883 8.90625 8.06258 8.85156 8.31258 8.54688C8.64071 8.15625 9.19539 7.85156 9.72664 7.78125C10.4376 7.67188 11.4688 8.16406 11.8907 8.80469C12.2266 9.32031 12.2813 9.59375 12.3126 10.9297C12.336 11.8438 12.3751 12.2344 12.4454 12.2813C12.5938 12.375 12.7891 12.3516 12.9298 12.2188C13.0313 12.1094 13.0548 11.9063 13.0391 10.9453C13.0313 10.2578 12.9845 9.64063 12.922 9.38281C12.6798 8.46094 12.0235 7.67188 11.172 7.28125C10.6641 7.05469 9.68758 6.98438 9.17977 7.14063Z" fill="#003384"/>
<path d="M5.00782 7.80467C4.62501 7.90624 4.35938 9.12499 4.21876 11.3984C4.09376 13.2812 3.78126 14.6172 3.17188 15.8594C2.85157 16.5078 2.85157 16.7656 3.16407 16.8437C3.43751 16.914 3.54688 16.7969 3.89845 16.0625C4.33595 15.1484 4.64845 14.0703 4.8047 12.9687C4.82813 12.7734 4.8672 12.5312 4.88282 12.4219C4.89845 12.3125 4.93751 11.875 4.96095 11.4453C5.04688 9.92186 5.09376 9.5078 5.28126 8.83592C5.38282 8.46874 5.46876 8.10155 5.46876 8.03124C5.46876 7.85155 5.2422 7.74999 5.00782 7.80467Z" fill="#003384"/>
<path d="M9.23439 8.5547C8.95314 8.71095 8.60939 9.06251 8.48439 9.32813C8.34376 9.64063 8.3047 9.8672 8.20314 11.2891C8.12501 12.3281 7.9922 13.4453 7.84376 14.3047C7.81251 14.5078 7.82814 14.6172 7.9297 14.7109C8.07814 14.8672 8.31251 14.8828 8.41407 14.7422C8.60157 14.5156 8.85939 12.7578 8.94532 11.1328C9.02345 9.71876 9.1172 9.46876 9.68751 9.15626C9.97657 9.00001 10.0781 8.7422 9.92189 8.54688C9.8047 8.41407 9.48439 8.41407 9.23439 8.5547Z" fill="#003384"/>
<path d="M10.5625 8.76562C10.4297 8.89843 10.4453 9.17968 10.5937 9.30468C10.6562 9.35937 10.7734 9.5078 10.8437 9.64062C11.1094 10.1172 10.9609 13.0078 10.5937 14.5625C10.5078 14.9141 10.5078 15.0625 10.5703 15.1719C10.6719 15.3359 11.0312 15.3594 11.1562 15.2109C11.25 15.0937 11.5312 13.6406 11.6406 12.6953C11.6797 12.3047 11.7187 11.5234 11.7187 10.9609C11.7187 10.1172 11.6875 9.84374 11.5625 9.52343C11.3125 8.84374 10.8359 8.49218 10.5625 8.76562Z" fill="#003384"/>
<path d="M7.04692 9.58593C7.00786 9.66405 6.9688 9.96874 6.96099 10.2734C6.95317 10.5703 6.92974 10.9922 6.91411 11.2109C6.89849 11.4219 6.85942 11.8437 6.83599 12.1484C6.77349 12.9062 6.51567 14.25 6.2813 15.0625C6.08599 15.7344 5.85161 16.3125 5.33599 17.4062C5.05474 18.0078 5.0313 18.3281 5.25005 18.4687C5.5313 18.6406 5.70317 18.4219 6.31255 17.0547C7.07036 15.375 7.50005 13.5312 7.61724 11.4844C7.64067 11.0312 7.67974 10.4609 7.70317 10.2109C7.7188 9.96093 7.70317 9.6953 7.6563 9.60936C7.54692 9.40624 7.14067 9.39843 7.04692 9.58593Z" fill="#003384"/>
<path d="M9.75001 9.82029C9.65626 9.92967 9.61719 10.2578 9.58594 11.289C9.53907 12.5859 9.36719 13.875 9.09376 14.8672C8.95313 15.3984 9.00001 15.6094 9.27344 15.6719C9.57032 15.75 9.68751 15.5703 9.88282 14.7422C10.2813 13.0937 10.5078 9.93748 10.2344 9.76561C10.0547 9.64842 9.88282 9.67186 9.75001 9.82029Z" fill="#003384"/>
<path d="M3.01571 10.9531C2.96102 11.0547 2.89071 11.4453 2.85946 11.8437C2.78915 12.9219 2.61727 13.6484 2.17196 14.7578C1.98446 15.2265 1.95321 15.3672 2.02352 15.5234C2.14852 15.789 2.53915 15.7734 2.68758 15.4844C3.09383 14.6875 3.53133 12.9609 3.6329 11.7344C3.67977 11.1719 3.66415 11.0625 3.54696 10.9297C3.36727 10.7344 3.15633 10.7422 3.01571 10.9531Z" fill="#003384"/>
<path d="M17.7344 10.9765C17.6797 11.039 17.625 11.3125 17.6094 11.5859C17.5391 12.9922 17.4844 13.6328 17.3828 14.3047C17.1641 15.6953 17.1562 15.7422 17.2969 15.8515C17.5 16.0156 17.7891 15.8984 17.8828 15.6094C18.0625 15.0312 18.2422 13.5937 18.3281 12.0703C18.375 11.2422 18.3672 11.1094 18.25 10.9922C18.0859 10.8281 17.8594 10.8203 17.7344 10.9765Z" fill="#003384"/>
<path d="M16.2579 12.8281C16.2188 12.9297 16.1485 13.3906 16.1016 13.8672C16.0157 14.6953 15.7969 16.0703 15.6172 16.9375C15.5391 17.2969 15.5391 17.3672 15.6641 17.5C15.9688 17.8359 16.2266 17.6172 16.375 16.9141C16.7266 15.25 16.9922 13.0312 16.8672 12.7969C16.75 12.5859 16.3438 12.6094 16.2579 12.8281Z" fill="#003384"/>
<path d="M5.53127 12.9844C5.46096 13.0391 5.35939 13.2969 5.31252 13.5547C5.26564 13.8125 5.21096 14.0547 5.20314 14.1016C5.18752 14.1406 5.15627 14.2813 5.11721 14.4141C4.94533 15.1016 4.38283 16.5156 4.14064 16.875C3.91408 17.2109 3.87502 17.4141 4.03127 17.5859C4.32033 17.9063 4.52346 17.7578 4.94533 16.9141C5.50783 15.7813 5.93752 14.4922 6.05471 13.5469C6.10158 13.1797 6.08596 13.1328 5.92971 13.0156C5.71096 12.8672 5.68752 12.8672 5.53127 12.9844Z" fill="#003384"/>
<path d="M12.2735 13.0703C12.2266 13.1328 12.1719 13.3125 12.1485 13.4844C11.8907 15.2187 11.5547 16.6172 11.0469 18.0859C10.5782 19.4141 10.586 19.3906 10.7735 19.5625C11.2032 19.9531 11.5469 19.2891 12.2735 16.6016C12.4532 15.9297 12.7813 14.2578 12.8516 13.6484C12.8907 13.3359 12.8828 13.1641 12.8125 13.0859C12.6953 12.9375 12.3907 12.9297 12.2735 13.0703Z" fill="#003384"/>
<path d="M13.3751 14.5469C13.336 14.6016 13.2423 15 13.172 15.4219C13.0313 16.2578 12.7032 17.5078 12.3907 18.4297C12.1798 19.0469 12.2032 19.2422 12.5001 19.3203C12.7657 19.3906 12.922 19.1563 13.2267 18.1953C13.7735 16.4609 14.1095 14.8359 13.961 14.5938C13.8595 14.4297 13.4923 14.4063 13.3751 14.5469Z" fill="#003384"/>
<path d="M7.60159 15.4062C7.56253 15.4609 7.41409 15.8438 7.26566 16.25C7.12503 16.6562 6.83597 17.3516 6.62503 17.7812C6.15628 18.75 6.14066 19.0234 6.56253 19.0234C6.82816 19.0234 6.84378 19 7.15628 18.3906C7.64847 17.4062 8.20316 15.9766 8.20316 15.6562C8.20316 15.5703 8.16409 15.4609 8.10941 15.4062C7.98441 15.2812 7.69534 15.2891 7.60159 15.4062Z" fill="#003384"/>
<path d="M10.2813 15.9297C10.2578 15.9609 10.1016 16.4297 9.92972 16.9609C9.76566 17.4922 9.50785 18.2109 9.37504 18.5547C9.07816 19.2969 9.06254 19.375 9.15629 19.5469C9.2266 19.6875 9.50004 19.7344 9.6641 19.625C9.82035 19.5234 10.1485 18.7031 10.6719 17.0781C10.9922 16.1016 10.9688 15.8594 10.5547 15.8594C10.4297 15.8594 10.3047 15.8906 10.2813 15.9297Z" fill="#003384"/>
<path d="M8.6641 16.4141C8.61723 16.5078 8.4766 16.8828 8.34379 17.2578C8.21879 17.625 8.00785 18.1484 7.88285 18.4219C7.75785 18.6953 7.63285 19 7.60942 19.0938C7.53129 19.4297 7.9766 19.6719 8.21879 19.4219C8.38285 19.2656 9.30473 16.8906 9.31254 16.625C9.32817 16.25 8.84379 16.0938 8.6641 16.4141Z" fill="#003384"/>
<path d="M14.5078 16.3438C14.3907 16.4375 14.0235 17.6484 13.9297 18.25C13.8828 18.5234 14.0469 18.6953 14.3125 18.6563C14.5391 18.625 14.625 18.4375 14.875 17.4688C15.1172 16.5469 15.125 16.4375 14.9297 16.3281C14.7344 16.2266 14.6641 16.2266 14.5078 16.3438Z" fill="#003384"/>
</g>
<defs>
<clipPath id="clip0_1164_5873">
<rect width="20" height="20" fill="white"/>
</clipPath>
</defs>
</svg>
