<svg width="167" height="77" viewBox="0 0 167 77" fill="none" xmlns="http://www.w3.org/2000/svg">
<path d="M76.7162 37.8629L79.2411 40.6324L76.9887 35.9391C73.6278 29.1962 73.4974 24.0479 76.4683 19.3397C78.4874 16.1787 79.1133 15.6643 83.1706 13.6329C91.343 9.53695 102.376 9.32287 115.881 12.9842C135.087 18.1219 151.287 29.3708 157.964 42.1142C160.698 47.3747 161.405 50.1935 160.954 54.6017L160.715 56.5831L162.339 53.8035C166.867 46.2003 163.472 35.4061 153.259 24.931C130.708 1.90272 87.1418 -7.70623 71.5783 7.02563C67.9898 10.3999 66.2736 16.6125 67.5362 21.7228C68.5054 25.9267 73.0365 33.7618 76.7162 37.8629Z" fill="white"/>
<path d="M148.461 48.3558L151.992 58.37L158.963 48.3558H167L156.461 62.6778L162.512 76.9999H154.512L150.557 67.0976L143.458 76.9999H135.366L146.107 62.6778L140.368 48.3558H148.461Z" fill="white"/>
<path d="M139.703 48.5861L138.734 54.5056H121.388L122.357 48.5861H139.703ZM121.626 77L126.657 46.5327C126.987 44.4732 127.658 42.7651 128.67 41.4086C129.695 40.052 130.957 39.0346 132.458 38.3563C133.97 37.678 135.605 37.3389 137.361 37.3389C138.557 37.3389 139.636 37.4314 140.6 37.6163C141.576 37.8013 142.283 37.9678 142.723 38.1158L140.399 44.0354C140.106 43.9367 139.746 43.8442 139.319 43.7579C138.892 43.6716 138.441 43.6284 137.965 43.6284C136.831 43.6284 135.995 43.8997 135.458 44.4424C134.934 44.9726 134.58 45.7188 134.397 46.6807L129.402 77H121.626Z" fill="white"/>
<path d="M108.115 76.9995L112.772 48.3533H120.521L115.864 76.9995H108.115Z" fill="white"/>
<path d="M114.591 44.1834C115.343 44.9667 116.295 45.3583 117.447 45.3583C118.599 45.3583 119.624 44.9667 120.521 44.1834C121.431 43.3876 121.946 42.4427 122.067 41.3486C122.189 40.2296 121.885 39.2847 121.158 38.5138C120.43 37.7305 119.49 37.3389 118.338 37.3389C117.186 37.3389 116.156 37.7305 115.246 38.5138C114.336 39.2847 113.815 40.2296 113.682 41.3486C113.548 42.4427 113.851 43.3876 114.591 44.1834Z" fill="#E41738"/>
<path d="M88.9872 77L93.5808 48.0362H100.991L100.184 53.0898H100.471C101.261 51.2921 102.319 49.9345 103.647 49.0168C104.987 48.0865 106.428 47.6214 107.971 47.6214C108.354 47.6214 108.755 47.6465 109.174 47.6968C109.604 47.7345 109.987 47.7974 110.322 47.8854L109.174 55.032C108.839 54.9063 108.36 54.8058 107.738 54.7303C107.128 54.6423 106.548 54.5983 105.998 54.5983C104.885 54.5983 103.85 54.856 102.893 55.3715C101.936 55.8743 101.129 56.5783 100.471 57.4834C99.8251 58.3885 99.4005 59.4319 99.1971 60.6136L96.6312 77H88.9872Z" fill="white"/>
<path d="M78.6248 64.5924L81.2832 48.3558H88.9873L84.2054 76.9999H76.8485L77.7929 71.4957H77.5036C76.6476 73.1525 75.3997 74.484 73.76 75.4904C72.1204 76.4967 70.2577 76.9999 68.1719 76.9999C66.3152 76.9999 64.7479 76.5704 63.4699 75.7113C62.204 74.8522 61.3058 73.6311 60.7753 72.0479C60.2448 70.4648 60.1544 68.5687 60.504 66.3596L63.4699 48.3558H71.1739L68.4612 64.9605C68.2081 66.6296 68.4371 67.9489 69.1485 68.9184C69.8598 69.888 70.9449 70.3727 72.4037 70.3727C73.332 70.3727 74.2302 70.158 75.0983 69.7284C75.9784 69.2866 76.738 68.6362 77.377 67.7771C78.016 66.918 78.4319 65.8564 78.6248 64.5924Z" fill="white"/>
<path d="M38.8886 76.9995C37.1087 76.9995 35.5664 76.6875 34.2619 76.0636C32.9696 75.4274 32.0186 74.4854 31.409 73.2376C30.7994 71.9897 30.647 70.4422 30.9518 68.5949C31.2201 67.0289 31.726 65.7199 32.4697 64.6678C33.2256 63.6035 34.1461 62.7471 35.2311 62.0987C36.3162 61.4503 37.5171 60.9549 38.8338 60.6123C40.1627 60.2698 41.5342 60.0373 42.9485 59.915C44.5822 59.7437 45.9111 59.5786 46.9352 59.4195C47.9715 59.2605 48.7456 59.0342 49.2577 58.7405C49.7698 58.4347 50.0806 57.982 50.1904 57.3826V57.2725C50.3732 56.1225 50.1599 55.2294 49.5503 54.5933C48.9529 53.9449 47.9959 53.6207 46.6791 53.6207C45.2893 53.6207 44.1067 53.9265 43.1314 54.5382C42.1682 55.1499 41.4794 55.9268 41.0649 56.8688L33.9693 56.2816C34.6033 54.5688 35.5603 53.0885 36.8404 51.8407C38.1328 50.5806 39.6872 49.6141 41.5038 48.9413C43.3203 48.2562 45.3564 47.9136 47.6118 47.9136C49.1724 47.9136 50.6293 48.0971 51.9825 48.4642C53.348 48.8312 54.5245 49.4 55.5121 50.1708C56.5118 50.9415 57.2311 51.9324 57.67 53.1436C58.1211 54.3425 58.2125 55.78 57.9443 57.456L54.7781 76.9995L47.4213 76.9994L48.0507 72.5586H47.8313C47.2339 73.4394 46.5024 74.2163 45.6368 74.8892C44.7711 75.5498 43.7775 76.0697 42.6559 76.449C41.5342 76.816 40.2785 76.9995 38.8886 76.9995ZM42.0158 71.6044C43.1496 71.6044 44.192 71.3781 45.143 70.9254C46.1061 70.4605 46.8986 69.8366 47.5204 69.0536C48.1544 68.2707 48.5567 67.3837 48.7274 66.3928L49.2028 63.4016C48.959 63.5607 48.6054 63.7013 48.1422 63.8237C47.6911 63.946 47.1973 64.0622 46.6609 64.1723C46.1366 64.2702 45.6063 64.362 45.0698 64.4476C44.5334 64.521 44.0518 64.5944 43.6251 64.6678C42.6864 64.8024 41.8451 65.0165 41.1014 65.3101C40.3577 65.6037 39.7543 66.0013 39.291 66.5029C38.8277 66.9922 38.5412 67.6039 38.4315 68.338C38.2608 69.4023 38.5107 70.2158 39.1812 70.7786C39.864 71.3291 40.8088 71.6044 42.0158 71.6044Z" fill="white"/>
<path d="M24.1195 49.8039C24.1804 48.2747 23.7354 47.0941 22.7845 46.2622C21.8457 45.4303 20.4254 45.0144 18.5235 45.0144C17.2311 45.0144 16.1095 45.1979 15.1585 45.5649C14.2076 45.9197 13.4456 46.4151 12.8726 47.0513C12.3118 47.6752 11.9643 48.397 11.8302 49.2167C11.6961 49.8895 11.7388 50.4768 11.9582 50.9783C12.1899 51.4799 12.5495 51.9142 13.0372 52.2812C13.537 52.636 14.1283 52.948 14.8111 53.2171C15.4938 53.474 16.2192 53.6942 16.9873 53.8778L20.2059 54.6852C21.7786 55.0522 23.1929 55.5415 24.4486 56.1532C25.7166 56.7649 26.7773 57.5173 27.6307 58.4104C28.4963 59.3034 29.1059 60.3555 29.4594 61.5667C29.813 62.7778 29.8618 64.1664 29.6057 65.7323C29.2156 68.0323 28.3073 70.0264 26.8809 71.7146C25.4545 73.3907 23.583 74.6936 21.2666 75.6233C18.9502 76.5409 16.268 76.9996 13.2201 76.9996C10.1965 76.9996 7.64235 76.5347 5.55756 75.605C3.47278 74.6752 1.95491 73.2989 1.00395 71.4761C0.0651919 69.641 -0.215218 67.3716 0.162726 64.668H7.82522C7.69111 65.928 7.87399 66.9801 8.37385 67.8243C8.8859 68.6562 9.64788 69.2862 10.6598 69.7144C11.6717 70.1304 12.8604 70.3383 14.2259 70.3383C15.5792 70.3383 16.78 70.1426 17.8285 69.7511C18.8892 69.3596 19.7487 68.8152 20.4071 68.1179C21.0654 67.4206 21.4678 66.6192 21.6141 65.7139C21.7604 64.8698 21.6323 64.1603 21.23 63.5853C20.8277 63.0103 20.1815 62.5209 19.2915 62.1172C18.4137 61.7013 17.3226 61.3342 16.0181 61.0162L12.1045 59.9885C9.08097 59.2178 6.79502 58.0128 5.24667 56.3734C3.69832 54.7341 3.1436 52.5259 3.5825 49.7488C3.97264 47.4734 4.9175 45.4854 6.41708 43.7849C7.92885 42.0721 9.83076 40.7448 12.1228 39.8028C14.427 38.8485 16.9446 38.3714 19.6756 38.3714C22.4553 38.3714 24.8022 38.8546 26.7163 39.8211C28.6304 40.7754 30.0263 42.1088 30.9042 43.8216C31.782 45.5343 32.0502 47.5284 31.7088 49.8039H24.1195Z" fill="white"/>
</svg>
